<mxfile host="app.diagrams.net" modified="2023-10-21T19:13:21.253Z" agent="Mozilla/5.0 (X11; Ubuntu; Linux x86_64; rv:109.0) Gecko/20100101 Firefox/118.0" etag="Gy3xcqFTgK-Suj0_PrW-" version="22.0.6" type="github">
  <diagram name="Page-1" id="DHi4tEcnq3jrGR1UPbw8">
    <mxGraphModel dx="1434" dy="915" grid="1" gridSize="10" guides="1" tooltips="1" connect="1" arrows="1" fold="1" page="1" pageScale="1" pageWidth="1390" pageHeight="980" math="0" shadow="0">
      <root>
        <mxCell id="0" />
        <mxCell id="1" parent="0" />
        <mxCell id="dpmgYY2yJpDzeLOt_lvD-3" value="root" style="strokeWidth=2;html=1;shape=mxgraph.flowchart.decision;whiteSpace=wrap;" vertex="1" parent="1">
          <mxGeometry x="640" y="40" width="100" height="100" as="geometry" />
        </mxCell>
      </root>
    </mxGraphModel>
  </diagram>
</mxfile>
